Coordinates
version=1
nRows=9
nColumns=36
inDegrees=yes

Units are S.I. units (second, meters, Newtons, ...)
If the header above contains a line with 'inDegrees', this indicates whether rotational values are in degrees (yes) or radians (no).

endheader
time	pelvis_tilt	pelvis_list	pelvis_rotation	pelvis_tx	pelvis_ty	pelvis_tz	hip_flexion_r	hip_adduction_r	hip_rotation_r	knee_angle_r	knee_angle_r_beta	ankle_angle_r	subtalar_angle_r	mtp_angle_r	hip_flexion_l	hip_adduction_l	hip_rotation_l	knee_angle_l	knee_angle_l_beta	ankle_angle_l	subtalar_angle_l	mtp_angle_l	lumbar_extension	lumbar_bending	lumbar_rotation	arm_flex_r	arm_add_r	arm_rot_r	elbow_flex_r	pro_sup_r	arm_flex_l	arm_add_l	arm_rot_l	elbow_flex_l	pro_sup_l
      3.43333330	    -23.59224993	     -2.25817351	     -7.11937166	      0.21944466	      0.60226687	     -0.08983072	     91.66655443	     -8.55975458	     -1.32469340	     99.96348691	      1.74469198	     34.10037664	     -1.56439783	     -7.49999987	     89.71345798	    -11.69785945	      6.51249468	    109.38797542	      1.90918033	     40.50090572	     -1.02426860	     -7.49999987	    -35.44231230	      2.55076513	      1.27297041	     85.33121941	    -24.39011734	    374.09130841	    105.92807232	     96.38963679	    103.55314640	    -10.54539137	     23.24473319	     93.75313281	     78.66485078
      3.43750000	    -24.02075037	     -2.17154881	     -7.21298454	      0.22169372	      0.59925658	     -0.09155518	     92.11467610	     -8.44525532	     -1.09658542	    100.19213977	      1.74868272	     34.38233824	     -1.81428319	     -7.49999987	     90.23052600	    -11.80673265	      6.27884538	    109.75607385	      1.91560486	     40.36481288	     -1.41956516	     -7.49999987	    -35.40815388	      2.17513152	      1.05187893	     85.89599995	    -23.87134983	    372.77554854	    106.08890728	     95.06402518	    104.44626497	     -9.88404338	     22.99898962	     93.69040279	     77.95841796
      3.44166670	    -24.45447427	     -2.13979197	     -7.21693047	      0.22053576	      0.59822141	     -0.09158703	     92.62050078	     -8.46658670	     -1.00736007	    100.34571829	      1.75136317	     34.51353670	     -1.33050929	     -7.49999987	     90.79131044	    -11.85046871	      6.11419779	    109.94039066	      1.91882180	     40.78960024	     -0.76153773	     -7.49999987	    -35.64982910	      2.25134075	      1.28436019	     87.50085857	    -24.91066879	    373.91263046	    107.75318955	     94.30558092	    105.18275289	    -10.15240271	     23.04784598	     95.05319197	     77.82470316
      3.44583330	    -24.83444933	     -2.14860988	     -7.25159519	      0.22167172	      0.59580386	     -0.09280700	     93.14054770	     -8.48545831	     -0.96470409	    100.53216968	      1.75461737	     34.58566495	     -1.10281628	     -7.49999987	     91.43644175	    -11.87907099	      6.10209548	    110.34886791	      1.92595107	     40.79399332	     -0.66837004	     -7.49999987	    -35.84886892	      2.21625078	      1.29367194	     88.66521374	    -25.22410129	    373.79661208	    108.60452294	     93.20627118	    106.12703450	    -10.01109939	     22.88821056	     95.67310710	     77.41404453
      3.45000000	    -25.18670356	     -2.13437152	     -7.33587743	      0.21966123	      0.59291733	     -0.09528641	     93.80211941	     -8.56272202	     -0.92292212	    100.71818626	      1.75786397	     34.44980455	     -1.08575824	     -7.49999987	     92.20749681	    -11.77862467	      5.99990296	    110.75867811	      1.93310361	     40.66667943	     -0.90353524	     -7.49999987	    -36.13907453	      2.30924484	      1.33309204	     90.63113183	    -25.46774242	    373.81950697	    108.73611670	     96.53969405	    107.13974042	     -9.85090167	     22.11476940	     96.12920220	     81.68090210
      3.45416670	    -25.55145547	     -2.11104179	     -7.30172036	      0.22059287	      0.59006125	     -0.09182900	     94.47659245	     -8.57480556	     -0.84621244	    101.06237900	      1.76387126	     34.55956039	     -1.06556821	     -7.49999987	     92.84415888	    -11.85420929	      6.00454989	    110.97332024	      1.93684982	     40.62944882	     -1.04649080	     -7.49999987	    -36.33030431	      2.14351436	      1.24216977	     92.06091323	    -25.68010351	    373.53205056	    109.40523752	     96.50273519	    108.35372020	     -9.73265913	     22.11421687	     96.55202416	     81.82750083
      3.45833330	    -25.88746647	     -2.01807340	     -7.26243745	      0.21997006	      0.58712478	     -0.09035669	     95.10540953	     -8.48290997	     -0.73323453	    101.40138043	      1.76978795	     34.72280888	     -1.10159679	     -7.49999987	     93.60226308	    -11.99425422	      6.06631378	    111.37024487	      1.94377746	     40.50817215	     -0.81410998	     -7.49999987	    -36.47732368	      1.83808393	      1.09192389	     93.35845528	    -25.92195509	    373.19363593	    110.16354799	     94.19000500	    109.73103789	     -9.74239947	     22.46528505	     96.81604834	     80.58119480
      3.46250000	    -26.25974733	     -1.98538688	     -7.18504103	      0.22227785	      0.58716075	     -0.08947415	     95.57831333	     -8.36975797	     -0.72664401	    101.65927398	      1.77428905	     34.80009829	     -1.32756286	     -7.49999987	     94.08055732	    -12.09750669	      6.21811042	    111.53061050	      1.94657637	     40.37883933	     -0.67863725	     -7.49999987	    -36.61044007	      1.66892296	      1.03855745	     94.48996560	    -26.16930664	    372.85805984	    111.20496056	     93.55614539	    110.67886923	     -9.84285919	     22.49244249	     97.56082447	     80.35012755
      3.46666670	    -26.68806015	     -1.92856406	     -7.19504631	      0.22130253	      0.58467225	     -0.08946358	     96.11435802	     -8.22748330	     -0.76472846	    101.82866377	      1.77724546	     34.82718794	     -1.40872632	     -7.49999987	     94.64013731	    -12.26593237	      6.29047981	    111.67695397	      1.94913055	     40.37899808	     -0.36546625	     -7.49999987	    -36.67510281	      1.36074587	      0.88169880	     95.56360868	    -26.26500246	    372.49881433	    112.02371736	     92.47946996	    111.75993461	     -9.78697356	     22.69072062	     98.03116293	     79.88125772
